<svg xmlns="http://www.w3.org/2000/svg" xmlns:xlink="http://www.w3.org/1999/xlink" width="140" zoomAndPan="magnify" viewBox="0 0 104.88 60" height="80" preserveAspectRatio="xMidYMid meet" version="1.0"><defs><g/><clipPath id="34e4a47108"><path d="M 0 0.0351562 L 102.957031 0.0351562 L 102.957031 59.960938 L 0 59.960938 Z M 0 0.0351562 " clip-rule="nonzero"/></clipPath><clipPath id="9e5c2b3357"><path d="M 37.511719 3.824219 L 99 3.824219 L 99 55.757812 L 37.511719 55.757812 Z M 37.511719 3.824219 " clip-rule="nonzero"/></clipPath></defs><g clip-path="url(#34e4a47108)"><path stroke-linecap="butt" transform="matrix(0.750305, 0, 0, 0.751503, 0.00000000000001068, -0.151719)" fill="none" stroke-linejoin="miter" d="M -0.000000000000014234 -0.000831895 L 137.220214 -0.000831895 L 137.220214 79.989886 L -0.000000000000014234 79.989886 L -0.000000000000014234 -0.000831895 " stroke="#18b18d" stroke-width="5.981154" stroke-opacity="1" stroke-miterlimit="4"/></g><g clip-path="url(#9e5c2b3357)"><path fill="#18b18d" d="M 37.511719 3.824219 L 99 3.824219 L 99 55.496094 L 37.511719 55.496094 Z M 37.511719 3.824219 " fill-opacity="1" fill-rule="nonzero"/></g><g fill="#1e3d58" fill-opacity="1"><g transform="translate(38.67783, 41.959111)"><g><path d="M 15.578125 0.492188 C 22.007812 0.492188 27.226562 -3.402344 28.8125 -9.300781 L 25.296875 -9.300781 C 23.933594 -5.332031 20.191406 -2.835938 15.691406 -2.835938 C 9.792969 -2.835938 5.597656 -7.109375 5.597656 -13.234375 C 5.597656 -19.359375 9.792969 -23.632812 15.691406 -23.632812 C 20.078125 -23.632812 23.671875 -21.289062 25.03125 -17.46875 L 28.585938 -17.46875 C 26.847656 -23.292969 21.816406 -26.960938 15.578125 -26.960938 C 7.789062 -26.960938 2.191406 -21.210938 2.191406 -13.234375 C 2.191406 -5.257812 7.789062 0.492188 15.578125 0.492188 Z M 15.578125 0.492188 "/></g></g></g><g fill="#1e3d58" fill-opacity="1"><g transform="translate(69.531795, 41.959111)"><g><path d="M 21.210938 0 L 24.539062 0 L 24.539062 -26.46875 L 21.210938 -26.46875 L 21.210938 -15.085938 L 7.183594 -15.085938 L 7.183594 -26.46875 L 3.855469 -26.46875 L 3.855469 0 L 7.183594 0 L 7.183594 -11.910156 L 21.210938 -11.910156 Z M 21.210938 0 "/></g></g></g><g fill="#18b18d" fill-opacity="1"><g transform="translate(3.545154, 41.843355)"><g><path d="M 3.855469 0 L 7.183594 0 L 7.183594 -20.265625 L 15.957031 -7.03125 L 18.679688 -7.03125 L 27.453125 -20.230469 L 27.453125 0 L 30.78125 0 L 30.78125 -26.46875 L 27.679688 -26.46875 L 17.355469 -10.777344 L 6.957031 -26.46875 L 3.855469 -26.46875 Z M 3.855469 0 "/></g></g></g></svg>