<svg xmlns="http://www.w3.org/2000/svg" xmlns:xlink="http://www.w3.org/1999/xlink" width="500" zoomAndPan="magnify" viewBox="0 0 375 374.999991" height="500" preserveAspectRatio="xMidYMid meet" version="1.0"><defs><g/><clipPath id="a7135d0fce"><path d="M 56.488281 151.464844 L 318.238281 151.464844 L 318.238281 223.464844 L 56.488281 223.464844 Z M 56.488281 151.464844 " clip-rule="nonzero"/></clipPath><clipPath id="af647b896b"><path d="M 63.558594 158.238281 L 187.332031 158.238281 L 187.332031 216.761719 L 63.558594 216.761719 Z M 63.558594 158.238281 " clip-rule="nonzero"/></clipPath></defs><g clip-path="url(#a7135d0fce)"><path stroke-linecap="butt" transform="matrix(0.750202, 0, 0, 0.749268, 56.489269, 151.465449)" fill="none" stroke-linejoin="miter" d="M -0.00131637 -0.000808127 L 348.904932 -0.000808127 L 348.904932 96.092952 L -0.00131637 96.092952 L -0.00131637 -0.000808127 " stroke="#18b18d" stroke-width="6" stroke-opacity="1" stroke-miterlimit="4"/></g><g clip-path="url(#af647b896b)"><path fill="#18b18d" d="M 63.558594 158.238281 L 187.515625 158.238281 L 187.515625 216.84375 L 63.558594 216.84375 Z M 63.558594 158.238281 " fill-opacity="1" fill-rule="nonzero"/></g><g fill="#ffffff" fill-opacity="1"><g transform="translate(71.594737, 196.618259)"><g><path d="M 11.570312 0.363281 C 16.347656 0.363281 20.222656 -2.527344 21.402344 -6.910156 L 18.789062 -6.910156 C 17.78125 -3.960938 15 -2.105469 11.65625 -2.105469 C 7.273438 -2.105469 4.15625 -5.28125 4.15625 -9.832031 C 4.15625 -14.378906 7.273438 -17.554688 11.65625 -17.554688 C 14.914062 -17.554688 17.582031 -15.8125 18.59375 -12.976562 L 21.234375 -12.976562 C 19.941406 -17.300781 16.207031 -20.027344 11.570312 -20.027344 C 5.785156 -20.027344 1.628906 -15.757812 1.628906 -9.832031 C 1.628906 -3.902344 5.785156 0.363281 11.570312 0.363281 Z M 11.570312 0.363281 "/></g></g></g><g fill="#ffffff" fill-opacity="1"><g transform="translate(94.506448, 196.618259)"><g><path d="M 15.757812 0 L 18.230469 0 L 18.230469 -19.660156 L 15.757812 -19.660156 L 15.757812 -11.207031 L 5.335938 -11.207031 L 5.335938 -19.660156 L 2.863281 -19.660156 L 2.863281 0 L 5.335938 0 L 5.335938 -8.847656 L 15.757812 -8.847656 Z M 15.757812 0 "/></g></g></g><g fill="#ffffff" fill-opacity="1"><g transform="translate(115.593089, 196.618259)"><g><path d="M 2.863281 0 L 15.109375 0 L 15.109375 -2.304688 L 5.335938 -2.304688 L 5.335938 -8.875 L 14.101562 -8.875 L 14.101562 -11.152344 L 5.335938 -11.152344 L 5.335938 -17.359375 L 14.800781 -17.359375 L 14.800781 -19.660156 L 2.863281 -19.660156 Z M 2.863281 0 "/></g></g></g><g fill="#ffffff" fill-opacity="1"><g transform="translate(132.524175, 196.618259)"><g><path d="M 2.863281 0 L 5.335938 0 L 5.335938 -8.847656 L 8.144531 -8.847656 C 8.902344 -8.847656 9.578125 -8.902344 10.195312 -9.015625 L 15.28125 0 L 18.144531 0 L 12.5 -9.914062 C 13.621094 -10.644531 14.410156 -11.769531 14.96875 -13.257812 L 17.386719 -19.660156 L 14.773438 -19.660156 L 12.75 -14.242188 C 11.964844 -12.105469 10.8125 -11.207031 8.144531 -11.207031 L 5.335938 -11.207031 L 5.335938 -19.660156 L 2.863281 -19.660156 Z M 2.863281 0 "/></g></g></g><g fill="#ffffff" fill-opacity="1"><g transform="translate(151.72958, 196.618259)"><g><path d="M 2.863281 0 L 5.335938 0 L 5.335938 -19.660156 L 2.863281 -19.660156 Z M 2.863281 0 "/></g></g></g><g fill="#ffffff" fill-opacity="1"><g transform="translate(159.928379, 196.618259)"><g><path d="M 2.863281 0 L 5.308594 0 L 5.308594 -15.390625 L 16.179688 0 L 18.480469 0 L 18.480469 -19.660156 L 16.066406 -19.660156 L 16.066406 -4.269531 L 5.195312 -19.660156 L 2.863281 -19.660156 Z M 2.863281 0 "/></g></g></g><g fill="#18b18d" fill-opacity="1"><g transform="translate(191.076906, 196.618259)"><g><path d="M 2.359375 0 L 6.796875 0 L 6.796875 -11.851562 L 11.570312 -4.859375 L 14.660156 -4.859375 L 19.4375 -11.824219 L 19.4375 0 L 23.875 0 L 23.875 -19.660156 L 20.109375 -19.660156 L 13.144531 -9.464844 L 6.152344 -19.660156 L 2.359375 -19.660156 Z M 2.359375 0 "/></g></g></g><g fill="#18b18d" fill-opacity="1"><g transform="translate(217.30183, 196.618259)"><g><path d="M 2.359375 0 L 6.824219 0 L 6.824219 -19.660156 L 2.359375 -19.660156 Z M 2.359375 0 "/></g></g></g><g fill="#18b18d" fill-opacity="1"><g transform="translate(226.483367, 196.618259)"><g><path d="M 2.359375 0 L 6.824219 0 L 6.824219 -7.949219 L 9.183594 -7.949219 C 9.550781 -7.949219 9.859375 -7.949219 10.195312 -7.976562 L 14.410156 0 L 19.605469 0 L 14.296875 -9.632812 C 15.082031 -10.390625 15.671875 -11.375 16.179688 -12.667969 L 18.902344 -19.660156 L 14.070312 -19.660156 L 12.21875 -14.550781 C 11.542969 -12.695312 10.730469 -12.105469 8.511719 -12.105469 L 6.824219 -12.105469 L 6.824219 -19.660156 L 2.359375 -19.660156 Z M 2.359375 0 "/></g></g></g><g fill="#18b18d" fill-opacity="1"><g transform="translate(246.896135, 196.618259)"><g><path d="M 14.519531 0 L 18.988281 0 L 18.988281 -19.660156 L 14.519531 -19.660156 L 14.519531 -12.105469 L 6.824219 -12.105469 L 6.824219 -19.660156 L 2.359375 -19.660156 L 2.359375 0 L 6.824219 0 L 6.824219 -7.921875 L 14.519531 -7.921875 Z M 14.519531 0 "/></g></g></g><g fill="#18b18d" fill-opacity="1"><g transform="translate(268.235474, 196.618259)"><g><path d="M 0.253906 0 L 5.027344 0 L 6.347656 -3.398438 L 14.15625 -3.398438 L 15.476562 0 L 20.25 0 L 12.441406 -19.660156 L 8.0625 -19.660156 Z M 7.5 -6.910156 L 10.25 -14.101562 L 13.03125 -6.910156 Z M 7.5 -6.910156 "/></g></g></g><g fill="#18b18d" fill-opacity="1"><g transform="translate(288.73247, 196.618259)"><g><path d="M 2.359375 0 L 6.824219 0 L 6.824219 -19.660156 L 2.359375 -19.660156 Z M 2.359375 0 "/></g></g></g><g fill="#18b18d" fill-opacity="1"><g transform="translate(297.914008, 196.618259)"><g><path d="M 2.359375 0 L 15.421875 0 L 15.421875 -4.183594 L 6.824219 -4.183594 L 6.824219 -19.660156 L 2.359375 -19.660156 Z M 2.359375 0 "/></g></g></g></svg>