<svg xmlns="http://www.w3.org/2000/svg" xmlns:xlink="http://www.w3.org/1999/xlink" width="290" zoomAndPan="magnify" viewBox="0 0 217.5 60" height="80" preserveAspectRatio="xMidYMid meet" version="1.0"><defs><g/><clipPath id="8861582cd8"><path d="M 0 0.0703125 L 217 0.0703125 L 217 59.910156 L 0 59.910156 Z M 0 0.0703125 " clip-rule="nonzero"/></clipPath><clipPath id="e67764a2a3"><path d="M 5.875 5.699219 L 108.75 5.699219 L 108.75 54.339844 L 5.875 54.339844 Z M 5.875 5.699219 " clip-rule="nonzero"/></clipPath></defs><g clip-path="url(#8861582cd8)"><path stroke-linecap="butt" transform="matrix(0.623526, 0, 0, 0.62275, -0.000000000000003599, 0.0694993)" fill="none" stroke-linejoin="miter" d="M 0.000000000000005773 0.0013059 L 348.904156 0.0013059 L 348.904156 96.09095 L 0.000000000000005773 96.09095 L 0.000000000000005773 0.0013059 " stroke="#18b18d" stroke-width="7.218961" stroke-opacity="1" stroke-miterlimit="4"/></g><g clip-path="url(#e67764a2a3)"><path fill="#18b18d" d="M 5.875 5.699219 L 108.902344 5.699219 L 108.902344 54.410156 L 5.875 54.410156 Z M 5.875 5.699219 " fill-opacity="1" fill-rule="nonzero"/></g><g fill="#1e3d58" fill-opacity="1"><g transform="translate(12.554827, 37.598011)"><g><path d="M 9.617188 0.304688 C 13.585938 0.304688 16.808594 -2.101562 17.789062 -5.742188 L 15.617188 -5.742188 C 14.777344 -3.292969 12.464844 -1.75 9.6875 -1.75 C 6.046875 -1.75 3.453125 -4.390625 3.453125 -8.171875 C 3.453125 -11.953125 6.046875 -14.589844 9.6875 -14.589844 C 12.394531 -14.589844 14.613281 -13.144531 15.453125 -10.785156 L 17.648438 -10.785156 C 16.574219 -14.378906 13.46875 -16.644531 9.617188 -16.644531 C 4.808594 -16.644531 1.355469 -13.097656 1.355469 -8.171875 C 1.355469 -3.246094 4.808594 0.304688 9.617188 0.304688 Z M 9.617188 0.304688 "/></g></g></g><g fill="#1e3d58" fill-opacity="1"><g transform="translate(31.597771, 37.598011)"><g><path d="M 13.097656 0 L 15.152344 0 L 15.152344 -16.339844 L 13.097656 -16.339844 L 13.097656 -9.316406 L 4.433594 -9.316406 L 4.433594 -16.339844 L 2.382812 -16.339844 L 2.382812 0 L 4.433594 0 L 4.433594 -7.355469 L 13.097656 -7.355469 Z M 13.097656 0 "/></g></g></g><g fill="#1e3d58" fill-opacity="1"><g transform="translate(49.123818, 37.598011)"><g><path d="M 2.382812 0 L 12.558594 0 L 12.558594 -1.914062 L 4.433594 -1.914062 L 4.433594 -7.375 L 11.71875 -7.375 L 11.71875 -9.269531 L 4.433594 -9.269531 L 4.433594 -14.425781 L 12.300781 -14.425781 L 12.300781 -16.339844 L 2.382812 -16.339844 Z M 2.382812 0 "/></g></g></g><g fill="#1e3d58" fill-opacity="1"><g transform="translate(63.195998, 37.598011)"><g><path d="M 2.382812 0 L 4.433594 0 L 4.433594 -7.355469 L 6.769531 -7.355469 C 7.398438 -7.355469 7.960938 -7.398438 8.472656 -7.492188 L 12.699219 0 L 15.082031 0 L 10.386719 -8.242188 C 11.320312 -8.847656 11.976562 -9.78125 12.441406 -11.019531 L 14.449219 -16.339844 L 12.28125 -16.339844 L 10.597656 -11.835938 C 9.945312 -10.0625 8.988281 -9.316406 6.769531 -9.316406 L 4.433594 -9.316406 L 4.433594 -16.339844 L 2.382812 -16.339844 Z M 2.382812 0 "/></g></g></g><g fill="#1e3d58" fill-opacity="1"><g transform="translate(79.158465, 37.598011)"><g><path d="M 2.382812 0 L 4.433594 0 L 4.433594 -16.339844 L 2.382812 -16.339844 Z M 2.382812 0 "/></g></g></g><g fill="#1e3d58" fill-opacity="1"><g transform="translate(85.972852, 37.598011)"><g><path d="M 2.382812 0 L 4.414062 0 L 4.414062 -12.792969 L 13.445312 0 L 15.359375 0 L 15.359375 -16.339844 L 13.351562 -16.339844 L 13.351562 -3.546875 L 4.320312 -16.339844 L 2.382812 -16.339844 Z M 2.382812 0 "/></g></g></g><g fill="#18b18d" fill-opacity="1"><g transform="translate(111.861787, 37.598011)"><g><path d="M 1.960938 0 L 5.648438 0 L 5.648438 -9.851562 L 9.617188 -4.039062 L 12.1875 -4.039062 L 16.15625 -9.828125 L 16.15625 0 L 19.84375 0 L 19.84375 -16.339844 L 16.714844 -16.339844 L 10.925781 -7.867188 L 5.113281 -16.339844 L 1.960938 -16.339844 Z M 1.960938 0 "/></g></g></g><g fill="#18b18d" fill-opacity="1"><g transform="translate(133.658489, 37.598011)"><g><path d="M 1.960938 0 L 5.671875 0 L 5.671875 -16.339844 L 1.960938 -16.339844 Z M 1.960938 0 "/></g></g></g><g fill="#18b18d" fill-opacity="1"><g transform="translate(141.289674, 37.598011)"><g><path d="M 1.960938 0 L 5.671875 0 L 5.671875 -6.605469 L 7.632812 -6.605469 C 7.9375 -6.605469 8.195312 -6.605469 8.472656 -6.628906 L 11.976562 0 L 16.292969 0 L 11.882812 -8.007812 C 12.535156 -8.636719 13.027344 -9.453125 13.445312 -10.527344 L 15.710938 -16.339844 L 11.695312 -16.339844 L 10.15625 -12.09375 C 9.59375 -10.550781 8.917969 -10.0625 7.074219 -10.0625 L 5.671875 -10.0625 L 5.671875 -16.339844 L 1.960938 -16.339844 Z M 1.960938 0 "/></g></g></g><g fill="#18b18d" fill-opacity="1"><g transform="translate(158.255635, 37.598011)"><g><path d="M 12.070312 0 L 15.78125 0 L 15.78125 -16.339844 L 12.070312 -16.339844 L 12.070312 -10.0625 L 5.671875 -10.0625 L 5.671875 -16.339844 L 1.960938 -16.339844 L 1.960938 0 L 5.671875 0 L 5.671875 -6.582031 L 12.070312 -6.582031 Z M 12.070312 0 "/></g></g></g><g fill="#18b18d" fill-opacity="1"><g transform="translate(175.99171, 37.598011)"><g><path d="M 0.210938 0 L 4.179688 0 L 5.277344 -2.824219 L 11.765625 -2.824219 L 12.863281 0 L 16.832031 0 L 10.339844 -16.339844 L 6.699219 -16.339844 Z M 6.234375 -5.742188 L 8.519531 -11.71875 L 10.832031 -5.742188 Z M 6.234375 -5.742188 "/></g></g></g><g fill="#18b18d" fill-opacity="1"><g transform="translate(193.027676, 37.598011)"><g><path d="M 1.960938 0 L 5.671875 0 L 5.671875 -16.339844 L 1.960938 -16.339844 Z M 1.960938 0 "/></g></g></g><g fill="#18b18d" fill-opacity="1"><g transform="translate(200.658861, 37.598011)"><g><path d="M 1.960938 0 L 12.816406 0 L 12.816406 -3.476562 L 5.671875 -3.476562 L 5.671875 -16.339844 L 1.960938 -16.339844 Z M 1.960938 0 "/></g></g></g></svg>